<svg xmlns="http://www.w3.org/2000/svg" viewBox="0 0 512 512" width="512" height="512">
  <defs>
    <linearGradient id="bgGrad512" x1="0%" y1="0%" x2="100%" y2="100%">
      <stop offset="0%" style="stop-color:#059669"/>
      <stop offset="100%" style="stop-color:#10b981"/>
    </linearGradient>
  </defs>
  <rect width="512" height="512" rx="102" fill="url(#bgGrad512)"/>
  <g transform="translate(256, 256)">
    <!-- Plate -->
    <circle cx="0" cy="20" r="140" fill="white" opacity="0.95"/>
    <circle cx="0" cy="20" r="115" fill="none" stroke="#059669" stroke-width="4" opacity="0.3"/>
    <!-- Fork -->
    <g transform="translate(-150, -50) rotate(-30)">
      <rect x="0" y="0" width="12" height="120" rx="6" fill="white"/>
      <rect x="-18" y="0" width="8" height="55" rx="4" fill="white"/>
      <rect x="22" y="0" width="8" height="55" rx="4" fill="white"/>
    </g>
    <!-- Leaf -->
    <path d="M-15,-40 Q40,-100 85,-40 Q40,15 -15,-40" fill="white" opacity="0.9" transform="translate(0, 15)"/>
    <path d="M-15,-40 Q-15,-10 15,5" fill="none" stroke="#059669" stroke-width="5" transform="translate(0, 15)"/>
    <!-- Heart -->
    <path d="M0,-20 C-12,-38 -38,-30 -38,-12 C-38,10 0,35 0,35 C0,35 38,10 38,-12 C38,-30 12,-38 0,-20Z" 
          fill="#ef4444" transform="translate(0, 45) scale(0.7)" opacity="0.9"/>
  </g>
</svg>
